# Blender 3.4.1
# www.blender.org
mtllib untitled.mtl
o skinlegs
v -0.865146 3.417062 0.792594
v -0.830574 2.925078 0.775907
v -1.746961 2.925580 -0.185757
v -1.214772 3.416439 -0.980424
v -1.200332 2.924387 -1.020471
v -0.813292 3.416013 -1.004093
v 1.746961 2.925580 -0.185757
v 1.214772 3.416439 -0.980424
v 1.771649 3.417467 -0.185664
v 0.172081 3.417235 -0.000737
v 1.339866 3.417112 0.778809
v 1.342844 2.925143 0.776811
v 0.830574 2.925078 0.775907
v -0.125206 4.713913 -0.000353
v -0.147393 4.100217 -0.000506
v -0.922019 4.749065 -0.936784
v -1.234812 4.099473 -0.924839
v -1.253704 4.749499 -0.872052
v -1.805942 4.100562 -0.185459
v -1.838582 4.750639 -0.185243
v -1.425467 4.750335 0.724402
v -0.956029 4.749905 0.837743
v -0.911002 4.099981 0.815719
v 1.425467 4.750335 0.724402
v 0.956029 4.749905 0.837743
v 0.125206 4.713913 -0.000353
v 0.922019 4.749065 -0.936784
v 1.234812 4.099473 -0.924839
v 1.253704 4.749499 -0.872052
v 1.838582 4.750639 -0.185243
v -0.172081 3.417235 -0.000737
v -0.867140 4.099028 -0.970809
v -1.771649 3.417467 -0.185664
v -1.373215 4.100266 0.744446
v -1.339866 3.417112 0.778809
v 1.373215 4.100266 0.744446
v 0.911002 4.099981 0.815719
v 0.865146 3.417062 0.792594
v 0.147393 4.100217 -0.000506
v 0.867140 4.099028 -0.970809
v 0.813292 3.416013 -1.004093
v 1.805942 4.100562 -0.185459
v -1.193256 1.317565 -1.091645
v -0.756862 1.317526 -1.091718
v -0.974804 0.824383 -1.113404
v -1.193050 0.824478 -1.115317
v -1.636974 0.825485 -0.187178
v -1.663110 1.318546 -0.186110
v -0.756615 0.824474 -1.115354
v -1.304835 0.825049 0.775771
v -1.305143 1.125171 0.776949
v -1.310501 1.318204 0.776951
v -0.823104 1.125055 0.775978
v -0.822937 0.825044 0.774740
v -0.237603 0.825170 -0.002540
v -0.227590 1.318174 -0.001272
v 0.823103 1.125055 0.775978
v 0.822936 0.825044 0.774740
v 1.304834 0.825049 0.775771
v 1.305142 1.125171 0.776949
v 1.636973 0.825484 -0.187178
v 0.237602 0.825171 -0.002540
v 0.756614 0.824474 -1.115354
v 0.974803 0.824383 -1.113404
v 1.193255 1.317565 -1.091645
v 1.193049 0.824478 -1.115317
v 1.663109 1.318545 -0.186110
v -1.698998 2.000604 -0.185912
v -0.824164 1.317968 0.775964
v -0.213467 2.000206 -0.001233
v 1.193492 1.999593 -1.060501
v 0.756749 1.999551 -1.060647
v 0.756861 1.317526 -1.091718
v 1.329522 2.000260 0.776900
v 1.698998 2.000603 -0.185912
v 1.310500 1.318204 0.776951
v 0.827955 1.999996 0.775936
v 0.824163 1.317968 0.775964
v 0.227589 1.318175 -0.001272
v -1.193663 2.474833 -1.038805
v -0.756691 2.699463 -1.039024
v -1.193863 2.699667 -1.038697
v -1.732260 2.636193 -0.185423
v -1.723861 2.475647 -0.185511
v -0.200309 2.635811 -0.001169
v -0.774432 2.923983 -1.028070
v -1.342749 2.475119 0.776875
v -1.342813 2.587501 0.776830
v -1.342813 2.700001 0.776830
v -1.342813 2.812501 0.776831
v -1.342844 2.925143 0.776811
v -0.830539 2.587500 0.775889
v -0.830559 2.475010 0.775899
v -0.830539 2.700000 0.775889
v -0.830539 2.812501 0.775890
v -0.189855 2.925343 -0.000976
v 0.830539 2.587500 0.775889
v 1.342813 2.587500 0.776830
v 0.830539 2.700001 0.775889
v 0.830539 2.812501 0.775890
v 1.732260 2.636193 -0.185423
v 1.342813 2.700001 0.776830
v 1.342813 2.812501 0.776831
v 0.200309 2.635811 -0.001169
v 1.193663 2.474833 -1.038805
v 0.756691 2.699463 -1.039024
v 1.193863 2.699667 -1.038697
v 0.774432 2.923983 -1.028070
v 1.200332 2.924387 -1.020471
v 0.189855 2.925343 -0.000976
v -1.329522 2.000260 0.776900
v -1.193492 1.999593 -1.060501
v -0.756692 2.474792 -1.039015
v -0.827955 1.999996 0.775936
v -0.756749 1.999551 -1.060647
v -0.203630 2.475266 -0.001212
v 1.342749 2.475119 0.776875
v 0.830559 2.475010 0.775899
v 1.723861 2.475647 -0.185511
v 0.756692 2.474792 -1.039015
v 0.203630 2.475266 -0.001212
v 0.213467 2.000207 -0.001233
vn -0.5553 -0.0086 0.8316
vn -0.5557 -0.0111 0.8313
vn 0.3984 -0.0048 0.9172
vn -0.9939 -0.0360 -0.1039
vn 0.4334 -0.0061 0.9012
vn -0.9943 -0.0449 -0.0968
vn 0.9982 -0.0181 0.0579
vn -0.4972 0.0437 -0.8666
vn 0.9967 -0.0265 0.0762
vn -0.4906 0.0477 -0.8701
vn 0.4654 0.0767 -0.8818
vn 0.5011 0.0791 -0.8617
vn 0.9943 -0.0449 -0.0968
vn 0.4972 0.0437 -0.8666
vn 0.9939 -0.0360 -0.1039
vn 0.4906 0.0477 -0.8701
vn -0.4654 0.0767 -0.8818
vn -0.5011 0.0791 -0.8617
vn -0.9982 -0.0181 0.0579
vn -0.9967 -0.0265 0.0762
vn 0.5553 -0.0086 0.8316
vn -0.3984 -0.0048 0.9172
vn 0.5557 -0.0111 0.8313
vn -0.4334 -0.0061 0.9012
vn 0.9993 -0.0246 0.0281
vn 0.9991 -0.0168 0.0398
vn 0.3374 0.0724 -0.9386
vn 0.4080 0.0754 -0.9099
vn -0.5068 0.0410 -0.8611
vn -0.5298 0.0388 -0.8472
vn -0.9919 -0.0434 -0.1197
vn -0.9894 -0.0496 -0.1363
vn -0.6518 -0.0260 0.7579
vn -0.6076 -0.0205 0.7940
vn 0.2615 0.0073 0.9652
vn 0.3339 0.0015 0.9426
vn 0.6518 -0.0260 0.7579
vn -0.2615 0.0073 0.9652
vn 0.6076 -0.0205 0.7940
vn 0.9919 -0.0434 -0.1197
vn 0.9894 -0.0496 -0.1363
vn -0.3339 0.0015 0.9426
vn -0.9993 -0.0246 0.0281
vn -0.9991 -0.0168 0.0398
vn -0.3374 0.0724 -0.9386
vn -0.4080 0.0754 -0.9099
vn 0.5068 0.0410 -0.8611
vn 0.5298 0.0388 -0.8472
vn -0.5242 0.0330 -0.8510
vn 0.5327 0.0360 -0.8455
vn -0.0001 0.0469 -0.9989
vn -0.5214 0.0407 -0.8523
vn -0.9972 -0.0375 -0.0642
vn -0.9967 -0.0423 -0.0693
vn 0.9949 -0.0133 0.1002
vn 0.9950 -0.0136 0.0992
vn 0.5257 0.0410 -0.8497
vn -0.5800 -0.0038 0.8146
vn -0.5717 -0.0134 0.8204
vn -0.5718 -0.0159 0.8203
vn 0.4454 -0.0020 0.8953
vn 0.4479 -0.0034 0.8941
vn 0.4431 0.0025 0.8965
vn -0.4454 -0.0020 0.8953
vn -0.9949 -0.0133 0.1002
vn -0.4479 -0.0034 0.8941
vn 0.5800 -0.0038 0.8146
vn 0.5717 -0.0134 0.8204
vn -0.4431 0.0025 0.8965
vn -0.9950 -0.0136 0.0992
vn 0.9972 -0.0375 -0.0642
vn 0.5718 -0.0159 0.8203
vn 0.9967 -0.0423 -0.0693
vn -0.5327 0.0360 -0.8455
vn -0.5257 0.0410 -0.8497
vn 0.0001 0.0469 -0.9989
vn 0.5242 0.0330 -0.8510
vn 0.5214 0.0407 -0.8523
vn -0.5658 -0.0203 0.8243
vn -0.9953 -0.0468 -0.0847
vn 0.4386 0.0003 0.8987
vn -0.5062 0.0316 -0.8618
vn 0.9952 -0.0160 0.0962
vn 0.5244 0.0349 -0.8507
vn 0.5062 0.0316 -0.8618
vn 0.9953 -0.0468 -0.0847
vn -0.5244 0.0349 -0.8507
vn -0.9952 -0.0160 0.0962
vn 0.5658 -0.0203 0.8243
vn -0.4386 0.0003 0.8987
vn -0.4929 0.0129 -0.8700
vn 0.5196 0.0418 -0.8534
vn 0.5199 0.0161 -0.8541
vn -0.4777 0.0260 -0.8782
vn -0.9950 -0.0435 -0.0897
vn -0.9946 -0.0502 -0.0911
vn 0.9956 -0.0211 0.0911
vn 0.9953 -0.0206 0.0944
vn -0.5631 -0.0093 0.8263
vn -0.5583 -0.0000 0.8296
vn -0.5582 -0.0000 0.8297
vn -0.5581 -0.0000 0.8297
vn 0.4310 -0.0000 0.9023
vn 0.4326 -0.0008 0.9016
vn 0.4310 -0.0000 0.9024
vn -0.4326 -0.0008 0.9016
vn -0.9956 -0.0211 0.0911
vn -0.9953 -0.0206 0.0944
vn -0.4310 -0.0000 0.9023
vn 0.5631 -0.0093 0.8263
vn 0.5583 -0.0000 0.8296
vn -0.4310 -0.0000 0.9024
vn 0.9950 -0.0435 -0.0897
vn 0.9946 -0.0502 -0.0911
vn 0.5582 -0.0000 0.8297
vn 0.5581 -0.0000 0.8297
vn 0.4929 0.0129 -0.8700
vn -0.5199 0.0161 -0.8541
vn -0.5196 0.0418 -0.8534
vn 0.4777 0.0260 -0.8782
vt 0.713337 -0.605036
vt 0.714823 -0.563608
vt 0.605215 -0.563608
vt 0.531229 -0.605036
vt 0.531229 -0.563608
vt 0.497128 -0.605036
vt 0.965048 -0.563608
vt 0.245889 -0.563608
vt 0.320291 -0.605036
vt 0.965048 -0.605036
vt 0.245889 -0.605036
vt 0.792948 -0.605036
vt 0.417948 -0.605036
vt 0.890604 -0.605036
vt 0.890604 -0.563608
vt 0.855448 -0.563608
vt 0.433318 -0.734486
vt 0.776560 -0.734486
vt 0.433318 -0.671442
vt 0.776560 -0.671442
vt 0.500105 -0.734486
vt 0.531229 -0.671442
vt 0.531229 -0.734486
vt 0.605215 -0.671442
vt 0.605215 -0.734486
vt 0.671177 -0.734486
vt 0.711396 -0.734486
vt 0.712436 -0.671442
vt 0.898485 -0.734486
vt 0.857029 -0.734486
vt 0.792948 -0.734486
vt 0.417948 -0.734486
vt 0.350999 -0.734486
vt 0.320291 -0.671442
vt 0.320108 -0.734486
vt 0.965048 -0.734486
vt 0.245889 -0.734486
vt 0.433318 -0.605036
vt 0.776560 -0.605036
vt 0.498909 -0.671442
vt 0.605215 -0.605036
vt 0.677122 -0.671442
vt 0.679666 -0.605036
vt 0.894261 -0.671442
vt 0.857096 -0.671442
vt 0.856674 -0.605036
vt 0.792948 -0.671442
vt 0.417948 -0.671442
vt 0.350909 -0.671442
vt 0.352691 -0.605036
vt 0.965048 -0.671442
vt 0.245889 -0.671442
vt 0.531229 -0.409724
vt 0.496115 -0.409724
vt 0.515646 -0.363375
vt 0.531229 -0.363375
vt 0.605215 -0.363375
vt 0.605215 -0.409724
vt 0.496115 -0.363375
vt 0.679666 -0.363375
vt 0.679666 -0.390192
vt 0.679666 -0.409724
vt 0.714823 -0.390192
vt 0.714823 -0.363375
vt 0.433318 -0.363375
vt 0.776560 -0.363375
vt 0.776560 -0.409724
vt 0.433318 -0.409724
vt 0.855448 -0.390192
vt 0.855448 -0.363375
vt 0.890604 -0.363375
vt 0.890604 -0.390192
vt 0.965048 -0.363375
vt 0.245889 -0.363375
vt 0.792948 -0.363375
vt 0.417948 -0.363375
vt 0.355490 -0.363375
vt 0.335959 -0.363375
vt 0.320291 -0.409724
vt 0.320291 -0.363375
vt 0.245889 -0.409724
vt 0.965048 -0.409724
vt 0.605215 -0.473946
vt 0.714823 -0.409724
vt 0.433318 -0.473946
vt 0.776560 -0.473946
vt 0.320291 -0.473946
vt 0.355490 -0.473946
vt 0.355490 -0.409724
vt 0.890604 -0.473946
vt 0.965048 -0.473946
vt 0.245889 -0.473946
vt 0.890604 -0.409724
vt 0.855448 -0.473946
vt 0.855448 -0.409724
vt 0.417948 -0.409724
vt 0.792948 -0.409724
vt 0.531229 -0.519804
vt 0.496115 -0.542822
vt 0.531229 -0.542822
vt 0.605215 -0.536477
vt 0.605215 -0.519804
vt 0.433318 -0.536477
vt 0.776560 -0.536477
vt 0.496115 -0.563608
vt 0.679666 -0.519804
vt 0.679666 -0.533082
vt 0.679666 -0.543653
vt 0.679666 -0.553165
vt 0.679666 -0.563608
vt 0.714823 -0.533082
vt 0.714823 -0.519804
vt 0.714823 -0.543653
vt 0.714823 -0.553165
vt 0.433318 -0.563608
vt 0.776560 -0.563608
vt 0.855448 -0.533082
vt 0.890604 -0.533082
vt 0.855448 -0.543653
vt 0.855448 -0.553165
vt 0.965048 -0.536477
vt 0.245889 -0.536477
vt 0.890604 -0.543653
vt 0.890604 -0.553165
vt 0.792948 -0.536477
vt 0.417948 -0.536477
vt 0.320291 -0.519804
vt 0.355490 -0.542822
vt 0.320291 -0.542822
vt 0.355490 -0.563608
vt 0.320291 -0.563608
vt 0.792948 -0.563608
vt 0.417948 -0.563608
vt 0.679666 -0.473946
vt 0.531229 -0.473946
vt 0.496115 -0.519804
vt 0.714823 -0.473946
vt 0.496115 -0.473946
vt 0.433318 -0.519804
vt 0.776560 -0.519804
vt 0.890604 -0.519804
vt 0.855448 -0.519804
vt 0.965048 -0.519804
vt 0.245889 -0.519804
vt 0.355490 -0.519804
vt 0.792948 -0.519804
vt 0.417948 -0.519804
vt 0.792948 -0.473946
vt 0.417948 -0.473946
s 1
usemtl bodyBottomsB0707out_Material
f 35/43/1 91/110/2 1/1/3
f 33/41/4 91/110/2 35/43/1
f 1/1/3 91/110/2 2/2/5
f 91/110/2 33/41/4 3/3/6
f 2/2/5 31/39/7 1/1/3
f 4/4/8 3/3/6 33/41/4
f 31/39/7 2/2/5 96/116/9
f 3/3/6 4/4/8 5/5/10
f 6/6/11 5/5/10 4/4/8
f 5/5/10 6/6/11 86/105/12
f 96/115/9 86/105/12 6/6/11
f 6/6/11 31/38/7 96/115/9
f 7/8/13 8/9/14 9/11/15
f 8/9/14 7/8/13 109/131/16
f 109/131/16 41/50/17 8/9/14
f 41/50/17 109/131/16 108/130/18
f 10/13/19 41/50/17 110/133/20
f 110/133/20 41/50/17 108/130/18
f 11/14/21 38/46/22 12/15/23
f 12/15/23 9/10/15 11/14/21
f 38/46/22 13/16/24 12/15/23
f 13/16/24 38/46/22 10/12/19
f 9/10/15 12/15/23 7/7/13
f 13/16/24 10/12/19 110/132/20
f 14/17/25 15/19/26 16/21/27
f 15/19/26 32/40/28 16/21/27
f 17/22/29 16/21/27 32/40/28
f 16/21/27 17/22/29 18/23/30
f 19/24/31 18/23/30 17/22/29
f 18/23/30 19/24/31 20/25/32
f 21/26/33 20/25/32 19/24/31
f 34/42/34 21/26/33 19/24/31
f 21/26/33 34/42/34 22/27/35
f 22/27/35 34/42/34 23/28/36
f 23/28/36 14/18/25 22/27/35
f 14/18/25 23/28/36 15/20/26
f 24/29/37 25/30/38 36/44/39
f 36/44/39 42/51/40 24/29/37
f 24/29/37 42/51/40 30/36/41
f 25/30/38 37/45/42 36/44/39
f 37/45/42 25/30/38 26/31/43
f 37/45/42 26/31/43 39/47/44
f 27/33/45 39/48/44 26/32/43
f 39/48/44 27/33/45 40/49/46
f 27/33/45 28/34/47 40/49/46
f 28/34/47 27/33/45 29/35/48
f 29/35/48 42/52/40 28/34/47
f 42/52/40 29/35/48 30/37/41
f 15/19/26 31/38/7 32/40/28
f 31/38/7 6/6/11 32/40/28
f 4/4/8 32/40/28 6/6/11
f 32/40/28 4/4/8 17/22/29
f 33/41/4 17/22/29 4/4/8
f 17/22/29 33/41/4 19/24/31
f 34/42/34 19/24/31 33/41/4
f 35/43/1 34/42/34 33/41/4
f 34/42/34 35/43/1 23/28/36
f 23/28/36 35/43/1 1/1/3
f 1/1/3 15/20/26 23/28/36
f 15/20/26 1/1/3 31/39/7
f 36/44/39 37/45/42 11/14/21
f 11/14/21 9/10/15 36/44/39
f 36/44/39 9/10/15 42/51/40
f 37/45/42 38/46/22 11/14/21
f 38/46/22 37/45/42 39/47/44
f 38/46/22 39/47/44 10/12/19
f 39/48/44 40/49/46 10/13/19
f 10/13/19 40/49/46 41/50/17
f 40/49/46 8/9/14 41/50/17
f 8/9/14 40/49/46 28/34/47
f 28/34/47 9/11/15 8/9/14
f 9/11/15 28/34/47 42/52/40
f 43/53/49 44/54/50 45/55/51
f 43/53/49 45/55/51 46/56/52
f 47/57/53 43/53/49 46/56/52
f 43/53/49 47/57/53 48/58/54
f 55/65/55 44/54/50 56/68/56
f 45/55/51 44/54/50 49/59/57
f 44/54/50 55/65/55 49/59/57
f 47/57/53 50/60/58 51/61/59
f 51/61/59 48/58/54 47/57/53
f 48/58/54 51/61/59 52/62/60
f 53/63/61 51/61/59 50/60/58
f 53/63/61 50/60/58 54/64/62
f 69/84/63 51/61/59 53/63/61
f 69/84/63 52/62/60 51/61/59
f 53/63/61 54/64/62 55/66/55
f 56/67/56 53/63/61 55/66/55
f 53/63/61 56/67/56 69/84/63
f 57/69/64 62/75/65 58/70/66
f 59/71/67 57/69/64 58/70/66
f 57/69/64 59/71/67 60/72/68
f 57/69/64 60/72/68 78/95/69
f 79/97/70 62/75/65 57/69/64
f 78/95/69 79/97/70 57/69/64
f 61/73/71 60/72/68 59/71/67
f 76/93/72 78/95/69 60/72/68
f 60/72/68 67/82/73 76/93/72
f 67/82/73 60/72/68 61/73/71
f 79/96/70 73/89/74 62/76/65
f 62/76/65 73/89/74 63/77/75
f 73/89/74 64/78/76 63/77/75
f 65/79/77 64/78/76 73/89/74
f 65/79/77 66/80/78 64/78/76
f 65/79/77 61/74/71 66/80/78
f 61/74/71 65/79/77 67/81/73
f 111/134/79 48/58/54 52/62/60
f 48/58/54 111/134/79 68/83/80
f 111/134/79 52/62/60 114/137/81
f 48/58/54 68/83/80 112/135/82
f 48/58/54 112/135/82 43/53/49
f 114/137/81 52/62/60 69/84/63
f 69/84/63 56/67/56 114/137/81
f 114/137/81 56/67/56 70/86/83
f 115/138/84 43/53/49 112/135/82
f 43/53/49 115/138/84 44/54/50
f 115/138/84 56/68/56 44/54/50
f 56/68/56 115/138/84 70/85/83
f 67/81/73 71/87/85 75/92/86
f 71/87/85 67/81/73 65/79/77
f 65/79/77 72/88/87 71/87/85
f 72/88/87 65/79/77 73/89/74
f 79/96/70 72/88/87 73/89/74
f 72/88/87 79/96/70 122/149/88
f 74/90/89 67/82/73 75/91/86
f 67/82/73 74/90/89 76/93/72
f 74/90/89 77/94/90 76/93/72
f 77/94/90 78/95/69 76/93/72
f 78/95/69 77/94/90 79/97/70
f 77/94/90 122/148/88 79/97/70
f 80/98/91 81/99/92 113/136/93
f 81/99/92 80/98/91 82/100/94
f 80/98/91 83/101/95 82/100/94
f 80/98/91 84/102/96 83/101/95
f 113/136/93 81/99/92 85/103/97
f 82/100/94 86/105/12 81/99/92
f 81/99/92 86/105/12 85/103/97
f 113/136/93 85/103/97 116/139/98
f 87/106/99 83/101/95 84/102/96
f 83/101/95 87/106/99 88/107/100
f 83/101/95 88/107/100 89/108/101
f 90/109/102 83/101/95 89/108/101
f 91/110/2 83/101/95 90/109/102
f 91/110/2 3/3/6 83/101/95
f 83/101/95 5/5/10 82/100/94
f 86/105/12 82/100/94 5/5/10
f 3/3/6 5/5/10 83/101/95
f 85/103/97 86/105/12 96/115/9
f 92/111/103 88/107/100 87/106/99
f 92/111/103 87/106/99 93/112/104
f 94/113/105 88/107/100 92/111/103
f 94/113/105 89/108/101 88/107/100
f 95/114/103 89/108/101 94/113/105
f 95/114/103 90/109/102 89/108/101
f 2/2/5 90/109/102 95/114/103
f 2/2/5 91/110/2 90/109/102
f 93/112/104 85/104/97 92/111/103
f 92/111/103 85/104/97 94/113/105
f 95/114/103 85/104/97 2/2/5
f 94/113/105 85/104/97 95/114/103
f 93/112/104 116/140/98 85/104/97
f 96/116/9 2/2/5 85/104/97
f 118/142/106 104/125/107 121/146/108
f 118/142/106 97/117/109 104/125/107
f 117/141/110 97/117/109 118/142/106
f 97/117/109 117/141/110 98/118/111
f 97/117/109 99/119/112 104/125/107
f 98/118/111 99/119/112 97/117/109
f 99/119/112 100/120/109 104/125/107
f 100/120/109 13/16/24 104/125/107
f 101/121/113 98/118/111 117/141/110
f 117/141/110 119/143/114 101/121/113
f 101/121/113 102/123/115 98/118/111
f 102/123/115 100/120/109 99/119/112
f 99/119/112 98/118/111 102/123/115
f 100/120/109 102/123/115 103/124/116
f 103/124/116 13/16/24 100/120/109
f 103/124/116 102/123/115 101/121/113
f 110/132/20 104/125/107 13/16/24
f 12/15/23 103/124/116 101/121/113
f 13/16/24 103/124/116 12/15/23
f 12/15/23 101/121/113 7/7/13
f 105/127/117 120/145/118 106/128/119
f 105/127/117 106/128/119 107/129/120
f 105/127/117 107/129/120 101/122/113
f 105/127/117 101/122/113 119/144/114
f 120/145/118 104/126/107 106/128/119
f 120/145/118 121/147/108 104/126/107
f 108/130/18 107/129/120 106/128/119
f 106/128/119 104/126/107 108/130/18
f 101/122/113 107/129/120 109/131/16
f 107/129/120 108/130/18 109/131/16
f 7/8/13 101/122/113 109/131/16
f 104/126/107 110/133/20 108/130/18
f 84/102/96 80/98/91 68/83/80
f 111/134/79 84/102/96 68/83/80
f 84/102/96 111/134/79 87/106/99
f 68/83/80 80/98/91 112/135/82
f 113/136/93 112/135/82 80/98/91
f 87/106/99 111/134/79 93/112/104
f 93/112/104 111/134/79 114/137/81
f 112/135/82 113/136/93 115/138/84
f 113/136/93 70/85/83 115/138/84
f 70/85/83 113/136/93 116/139/98
f 70/86/83 93/112/104 114/137/81
f 93/112/104 70/86/83 116/140/98
f 117/141/110 118/142/106 74/90/89
f 74/90/89 119/143/114 117/141/110
f 118/142/106 77/94/90 74/90/89
f 77/94/90 118/142/106 122/148/88
f 118/142/106 121/146/108 122/148/88
f 119/143/114 74/90/89 75/91/86
f 75/92/86 105/127/117 119/144/114
f 105/127/117 75/92/86 71/87/85
f 71/87/85 120/145/118 105/127/117
f 71/87/85 72/88/87 120/145/118
f 121/147/108 120/145/118 122/149/88
f 122/149/88 120/145/118 72/88/87
